<svg xmlns="http://www.w3.org/2000/svg" version="1.1" xmlns:xlink="http://www.w3.org/1999/xlink" xmlns:svgjs="http://svgjs.dev/svgjs" width="1000" height="1000" viewBox="0 0 1000 1000"><rect width="1000" height="1000" fill="#f5ba41"></rect><g transform="matrix(0.7,0,0,0.7,149.57575757575756,252.54999999999998)"><svg viewBox="0 0 396 280" data-background-color="#f5ba41" preserveAspectRatio="xMidYMid meet" height="707" width="1000" xmlns="http://www.w3.org/2000/svg" xmlns:xlink="http://www.w3.org/1999/xlink"><g id="tight-bounds" transform="matrix(1,0,0,1,0.2400000000000091,0)"><svg viewBox="0 0 395.52 280" height="280" width="395.52"><g><svg viewBox="0 0 395.52 280" height="280" width="395.52"><g><svg viewBox="0 0 395.52 280" height="280" width="395.52"><g><svg viewBox="0 0 395.52 280" height="280" width="395.52"><g><svg viewBox="0 0 395.52 280" height="280" width="395.52"><g transform="matrix(1,0,0,1,81.22880246045696,47.293586941235716)"><svg viewBox="0 0 233.06239507908606 185.41282611752857" height="185.41282611752857" width="233.06239507908606"><g><circle r="82" cx="116.53119753954303" cy="92.70641305876428" fill="#ffffff" data-fill-palette-color="accent"></circle><svg xmlns:x="http://ns.adobe.com/Extensibility/1.0/" xmlns:i="http://ns.adobe.com/AdobeIllustrator/10.0/" xmlns:graph="http://ns.adobe.com/Graphs/1.0/" xmlns="http://www.w3.org/2000/svg" xmlns:xlink="http://www.w3.org/1999/xlink" xmlns:a="http://ns.adobe.com/AdobeSVGViewerExtensions/3.0/" version="1.1" baseProfile="basic" x="34.95935926186291" y="34.95935926186291" viewBox="5.00000524520874 7 90.28196716308594 85.68000030517578" xml:space="preserve" height="115.49410759380275" width="163.14367655536023" class="icon-o-0" data-fill-palette-color="quaternary" id="o-0"><g fill="#f5ba41" data-fill-palette-color="quaternary"><g fill="#f5ba41" data-fill-palette-color="quaternary"><path fill-rule="evenodd" clip-rule="evenodd" d="M27.8 7c0.08 0 0.16 0 0.24 0 3.782 8.218 8.224 15.776 12 24 6.381-0.5 13.83 0.07 20.16-0.48C64.254 22.813 68.174 14.973 71.96 7c0.08 0 0.16 0 0.24 0 7.237 17.172 21.862 33.197 23.04 56.16 0.241 4.696-0.587 8.264-1.68 12.24-4.015 0.306-9.261-0.621-12.48 0.479 1.035 1.296 3.424 0.721 5.521 0.721 2.093 0 4.413 0 6.239 0-0.838 2.361-2.18 4.22-3.84 5.76-3.039-0.208-6.306-2.591-8.88-1.681 1.859 1.661 5.277 1.764 7.92 2.641-1.594 1.446-3.442 2.638-5.52 3.6-1.924-0.636-2.944-2.176-5.04-2.64-0.549 1.868 2.394 1.999 3.359 3.12-8.327 4.393-19.208 1.431-24-5.04-0.794-1.073-1.03-2.364-1.439-3.36-2.436 3.593-5.646 6.279-10.32 8.641-6.24 3.151-11.692 4.345-18.96 1.199 2.201-1.959 5.494-2.825 7.44-5.04-2.929-0.438-6.17 3.498-9.36 4.561-2.765-1.155-5.445-2.395-7.92-3.84 4.169-2.231 10.464-2.337 14.4-4.801-0.732-1.116-2.44-0.08-3.6 0.24-3.561 0.982-8.259 2.354-12 3.36-3.046-1.754-5.072-4.528-6.96-7.44 6.196-0.872 14.938 0.549 21.12-0.72-0.593-1.306-3.322-0.72-5.04-0.72-5.187 0-11.452 0-16.8 0-1.154-2.446-1.785-5.415-2.4-8.4 0-2.32 0-4.64 0-6.96C8.612 37.732 20.173 24.333 27.8 7zM15.08 35.32c5.439-3.361 12.757-4.843 21.36-5.04-2.758-7.242-5.683-14.318-9.12-20.88C23.27 18.07 18.997 26.517 15.08 35.32zM63.08 30.28c8.713 0.007 16.575 2.145 21.6 5.04-4.483-8.396-8.175-17.584-12.72-25.92C68.947 16.149 65.377 23.614 63.08 30.28zM32.36 61.96c4.751-0.141 4.103-16.594-0.72-15.12C27.843 48.001 28.048 62.088 32.36 61.96zM72.92 59.8c4.796-0.21 4.04-14.687-0.96-12.96C68.407 48.067 68.26 60.004 72.92 59.8zM55.64 78.04c2.686-5.315 5.897-10.104 8.641-15.36-5.681 0.16-12-0.319-17.28 0.24C50.132 67.708 52.521 73.24 55.64 78.04z" fill="#f5ba41" data-fill-palette-color="quaternary"></path><path fill-rule="evenodd" clip-rule="evenodd" d="M47 92.68c-3.04 0-6.08 0-9.12 0 5.233-1.309 9.748-3.471 13.681-6.479 0.828-0.634 3.181-3.151 3.6-3.12-0.026-0.002 2.421 2.446 2.64 2.64 3.234 2.859 6.17 4.809 10.32 6C61.367 92.327 53.867 92.188 47 92.68z" fill="#f5ba41" data-fill-palette-color="quaternary"></path></g></g></svg></g></svg></g><path d="M72.516 90.427V90.427C73.761 90.844 74.888 91.521 75.897 92.457 76.91 93.402 77.744 94.48 78.4 95.691 79.054 96.909 79.491 98.196 79.713 99.55 79.936 100.898 79.878 102.194 79.538 103.438V103.438C79.943 103.594 80.459 103.785 81.087 104.01 81.715 104.234 82.362 104.497 83.028 104.797 83.694 105.098 84.351 105.427 84.997 105.785 85.644 106.142 86.202 106.533 86.672 106.958 87.142 107.383 87.487 107.843 87.707 108.339 87.922 108.833 87.936 109.355 87.752 109.905V109.905C87.536 110.55 87.153 110.988 86.605 111.219 86.054 111.457 85.445 111.573 84.779 111.567 84.119 111.564 83.448 111.487 82.767 111.336 82.093 111.187 81.52 111.048 81.05 110.919V110.919C80.371 110.74 79.707 110.549 79.058 110.346 78.417 110.138 77.762 109.922 77.092 109.697V109.697C76.794 109.597 76.238 109.411 75.422 109.137 74.606 108.864 73.678 108.549 72.637 108.193 71.598 107.831 70.513 107.446 69.384 107.039 68.252 106.638 67.207 106.25 66.251 105.873 65.292 105.502 64.477 105.173 63.807 104.885 63.137 104.597 62.761 104.386 62.679 104.253V104.253C62.66 104.226 62.628 104.141 62.584 104 62.542 103.852 62.506 103.699 62.474 103.541 62.439 103.374 62.405 103.222 62.374 103.085 62.345 102.942 62.328 102.845 62.324 102.794V102.794C62.077 101.537 61.948 100.203 61.935 98.792 61.921 97.387 62.121 96.065 62.537 94.826V94.826C62.891 93.77 63.425 92.88 64.139 92.155 64.857 91.44 65.666 90.895 66.565 90.521 67.47 90.149 68.442 89.958 69.48 89.947 70.517 89.936 71.529 90.096 72.516 90.427ZM71.315 96.65V96.65C70.854 96.496 70.415 96.472 70 96.579 69.58 96.677 69.285 96.979 69.115 97.485V97.485C68.969 97.921 68.911 98.387 68.942 98.883 68.967 99.376 69.009 99.837 69.069 100.265V100.265C69.896 100.465 70.698 100.664 71.476 100.861 72.254 101.059 73.037 101.314 73.825 101.628V101.628C73.765 101.199 73.687 100.727 73.593 100.21 73.493 99.691 73.356 99.198 73.181 98.732 73.007 98.266 72.773 97.842 72.478 97.462 72.184 97.082 71.796 96.811 71.315 96.65ZM112.794 55.58V55.58C113.157 55.895 113.567 56.307 114.025 56.818 114.487 57.323 114.869 57.87 115.172 58.458 115.484 59.046 115.663 59.633 115.71 60.221 115.762 60.813 115.568 61.364 115.127 61.873V61.873C114.538 62.554 113.85 62.849 113.064 62.759 112.277 62.67 111.478 62.401 110.665 61.954 109.848 61.502 109.07 60.984 108.333 60.399 107.595 59.804 107.008 59.336 106.572 58.994V58.994C105.65 60.498 104.718 61.962 103.776 63.387V63.387C104.159 63.79 104.614 64.32 105.139 64.977 105.654 65.635 106.095 66.338 106.461 67.087 106.822 67.832 107.044 68.584 107.128 69.344 107.206 70.099 106.998 70.762 106.505 71.332V71.332C106.126 71.771 105.67 71.976 105.138 71.948 104.602 71.916 104.06 71.773 103.512 71.52 102.96 71.271 102.438 70.957 101.947 70.576 101.457 70.205 101.056 69.884 100.743 69.613V69.613C99.699 68.71 98.74 67.734 97.865 66.686 96.995 65.643 96.15 64.576 95.329 63.486V63.486C94.896 62.917 94.399 62.232 93.84 61.431 93.286 60.625 92.744 59.763 92.214 58.846 91.684 57.92 91.203 56.957 90.772 55.957 90.34 54.958 90.03 53.975 89.843 53.01 89.645 52.046 89.62 51.111 89.768 50.207 89.906 49.304 90.283 48.496 90.898 47.785V47.785C91.5 47.089 92.18 46.619 92.938 46.376 93.696 46.132 94.495 46.039 95.336 46.096 96.182 46.158 97.042 46.342 97.915 46.648 98.788 46.953 99.632 47.308 100.446 47.713 101.269 48.117 102.054 48.536 102.799 48.969 103.54 49.407 104.196 49.795 104.769 50.131V50.131C106.169 50.919 107.549 51.761 108.909 52.655 110.268 53.541 111.563 54.516 112.794 55.58ZM102.32 55.79L101.525 55.103C101.303 54.911 100.932 54.612 100.411 54.205 99.88 53.799 99.324 53.423 98.741 53.077 98.158 52.732 97.587 52.484 97.028 52.336 96.469 52.187 96.045 52.279 95.757 52.612V52.612C95.6 52.793 95.573 53.074 95.676 53.454 95.779 53.835 95.963 54.249 96.227 54.698 96.496 55.152 96.816 55.627 97.188 56.125 97.554 56.619 97.917 57.087 98.275 57.529 98.632 57.962 98.965 58.347 99.273 58.684 99.581 59.012 99.799 59.249 99.927 59.396V59.396C100.788 58.218 101.585 57.016 102.32 55.79ZM151.787 13.033V13.033C152.391 14.356 152.901 15.703 153.316 17.075 153.728 18.441 154.099 19.808 154.431 21.174V21.174C154.517 21.538 154.664 22.116 154.872 22.909 155.077 23.71 155.292 24.605 155.517 25.595 155.742 26.584 155.945 27.621 156.125 28.705 156.302 29.797 156.411 30.814 156.453 31.755 156.501 32.694 156.448 33.51 156.296 34.203 156.15 34.893 155.855 35.34 155.412 35.542V35.542C154.97 35.745 154.445 35.72 153.839 35.47 153.23 35.213 152.602 34.825 151.955 34.307 151.304 33.798 150.645 33.19 149.977 32.484 149.309 31.777 148.69 31.081 148.12 30.395 147.556 29.707 147.053 29.072 146.611 28.49 146.172 27.898 145.844 27.454 145.628 27.157V27.157C145.667 27.484 145.737 28.006 145.837 28.722 145.941 29.43 146.026 30.242 146.093 31.158 146.165 32.07 146.212 33.013 146.231 33.987 146.254 34.967 146.226 35.885 146.149 36.742 146.08 37.602 145.938 38.349 145.722 38.983 145.503 39.611 145.184 40.021 144.766 40.212V40.212C144.214 40.464 143.618 40.444 142.977 40.15 142.337 39.856 141.701 39.395 141.069 38.767 140.437 38.139 139.807 37.401 139.177 36.553 138.549 35.71 137.972 34.856 137.444 33.99 136.919 33.13 136.441 32.318 136.011 31.554 135.581 30.79 135.249 30.183 135.014 29.733V29.733C134.47 28.706 133.94 27.698 133.422 26.71 132.899 25.725 132.394 24.702 131.909 23.64V23.64C131.737 23.264 131.515 22.746 131.242 22.086 130.97 21.426 130.76 20.752 130.614 20.063 130.471 19.366 130.44 18.713 130.521 18.104 130.602 17.495 130.918 17.039 131.469 16.735V16.735C131.943 16.489 132.451 16.495 132.995 16.753 133.538 17.01 134.09 17.433 134.651 18.019 135.21 18.6 135.757 19.281 136.29 20.064 136.824 20.846 137.308 21.615 137.741 22.37 138.183 23.129 138.567 23.833 138.894 24.483 139.214 25.136 139.436 25.621 139.56 25.939V25.939L139.914 26.811C139.851 26.495 139.759 25.99 139.64 25.297 139.524 24.61 139.408 23.819 139.293 22.926 139.178 22.032 139.071 21.11 138.973 20.157 138.866 19.201 138.812 18.313 138.811 17.492 138.807 16.666 138.857 15.957 138.961 15.367 139.056 14.773 139.245 14.401 139.528 14.25V14.25C139.887 14.056 140.344 14.111 140.901 14.414 141.454 14.725 142.035 15.186 142.643 15.795 143.261 16.407 143.885 17.115 144.517 17.919 145.148 18.723 145.743 19.511 146.301 20.282 146.85 21.051 147.324 21.758 147.722 22.404 148.127 23.048 148.415 23.503 148.588 23.769V23.769C148.452 23.406 148.251 22.823 147.987 22.02 147.731 21.22 147.465 20.318 147.19 19.315 146.918 18.303 146.674 17.256 146.458 16.174 146.239 15.086 146.098 14.065 146.036 13.111 145.971 12.151 146.018 11.323 146.176 10.627 146.335 9.931 146.657 9.472 147.142 9.25V9.25C147.694 8.998 148.22 8.977 148.72 9.189 149.214 9.403 149.654 9.733 150.042 10.179 150.435 10.623 150.782 11.117 151.082 11.661 151.38 12.2 151.615 12.657 151.787 13.033ZM205.54 23.455V23.455C205.547 24.155 205.322 24.728 204.867 25.173 204.411 25.611 203.857 25.893 203.204 26.02V26.02C202.479 26.2 201.657 26.359 200.738 26.495 199.819 26.637 198.883 26.764 197.931 26.873 196.971 26.983 196.032 27.066 195.112 27.122 194.192 27.178 193.359 27.209 192.612 27.217V27.217C192.419 27.219 192.145 27.215 191.792 27.205 191.438 27.195 191.074 27.176 190.7 27.146 190.327 27.117 189.976 27.067 189.649 26.997 189.321 26.927 189.07 26.832 188.895 26.714V26.714C188.727 26.569 188.575 26.371 188.439 26.118 188.303 25.866 188.184 25.587 188.081 25.282 187.984 24.983 187.911 24.687 187.862 24.394 187.805 24.107 187.776 23.854 187.774 23.634V23.634C187.77 23.294 187.811 22.983 187.895 22.703 187.979 22.428 188.139 22.167 188.377 21.917V21.917C188.667 21.601 188.967 21.291 189.278 20.988 189.588 20.678 189.889 20.378 190.179 20.088V20.088C190.509 19.718 190.951 19.234 191.505 18.634 192.059 18.035 192.653 17.362 193.286 16.616 193.918 15.876 194.551 15.096 195.183 14.276 195.815 13.456 196.394 12.656 196.919 11.877 197.445 11.098 197.868 10.367 198.188 9.683 198.508 9.007 198.665 8.425 198.66 7.938V7.938C198.656 7.478 198.519 7.099 198.249 6.802 197.979 6.498 197.614 6.348 197.154 6.352V6.352C196.647 6.358 196.179 6.546 195.749 6.917 195.312 7.281 194.88 7.679 194.45 8.11 194.021 8.535 193.558 8.933 193.062 9.305 192.572 9.67 192.01 9.856 191.377 9.862V9.862C190.63 9.87 190.041 9.659 189.61 9.23 189.185 8.794 188.969 8.212 188.962 7.485V7.485C188.951 6.425 189.178 5.436 189.642 4.517 190.1 3.606 190.716 2.819 191.489 2.158 192.256 1.496 193.121 0.974 194.085 0.591 195.048 0.208 196.04 0.011 197.06 0.001V0.001C198.1-0.01 199.068 0.101 199.964 0.332 200.867 0.563 201.648 0.928 202.306 1.428 202.965 1.935 203.485 2.58 203.867 3.364 204.248 4.147 204.444 5.095 204.455 6.209V6.209C204.464 7.082 204.323 7.998 204.033 8.954 203.742 9.911 203.352 10.879 202.862 11.857 202.378 12.829 201.817 13.795 201.18 14.755 200.55 15.722 199.902 16.646 199.237 17.526 198.566 18.4 197.894 19.217 197.221 19.977 196.548 20.738 195.938 21.398 195.39 21.957V21.957C196.576 21.798 197.821 21.642 199.127 21.489 200.433 21.329 201.692 21.243 202.906 21.231V21.231C203.606 21.224 204.218 21.404 204.742 21.773 205.266 22.141 205.532 22.702 205.54 23.455ZM256.948 20.798V20.798C256.455 22.016 255.711 23.099 254.715 24.049 253.711 25.003 252.584 25.77 251.335 26.351 250.079 26.929 248.769 27.287 247.403 27.426 246.044 27.567 244.754 27.43 243.534 27.015V27.015C243.352 27.409 243.131 27.913 242.868 28.526 242.606 29.14 242.304 29.769 241.964 30.416 241.623 31.062 241.254 31.697 240.858 32.321 240.462 32.945 240.038 33.478 239.585 33.921 239.133 34.364 238.652 34.68 238.144 34.87 237.638 35.054 237.116 35.037 236.578 34.82V34.82C235.947 34.565 235.533 34.156 235.336 33.594 235.133 33.03 235.054 32.416 235.1 31.751 235.143 31.092 235.261 30.427 235.453 29.757 235.643 29.093 235.816 28.53 235.974 28.069V28.069C236.194 27.402 236.425 26.751 236.667 26.115 236.914 25.488 237.17 24.847 237.435 24.192V24.192C237.552 23.901 237.772 23.357 238.095 22.56 238.418 21.762 238.788 20.854 239.207 19.837 239.632 18.822 240.082 17.763 240.557 16.66 241.026 15.555 241.477 14.536 241.912 13.604 242.341 12.669 242.719 11.876 243.047 11.225 243.375 10.574 243.608 10.211 243.746 10.137V10.137C243.775 10.12 243.861 10.094 244.005 10.058 244.155 10.025 244.31 9.998 244.469 9.977 244.638 9.951 244.792 9.927 244.93 9.904 245.075 9.884 245.173 9.873 245.224 9.872V9.872C246.494 9.702 247.834 9.654 249.243 9.728 250.646 9.799 251.953 10.079 253.165 10.57V10.57C254.197 10.987 255.053 11.575 255.732 12.331 256.403 13.092 256.898 13.932 257.216 14.852 257.532 15.779 257.664 16.76 257.612 17.797 257.559 18.833 257.338 19.833 256.948 20.798ZM250.809 19.221V19.221C250.991 18.769 251.042 18.333 250.961 17.912 250.888 17.487 250.604 17.174 250.11 16.974V16.974C249.683 16.801 249.222 16.715 248.725 16.716 248.231 16.71 247.768 16.725 247.337 16.759V16.759C247.088 17.572 246.84 18.36 246.596 19.124 246.352 19.889 246.049 20.655 245.688 21.423V21.423C246.119 21.388 246.595 21.34 247.117 21.278 247.641 21.209 248.141 21.102 248.617 20.957 249.094 20.811 249.53 20.603 249.928 20.332 250.325 20.061 250.619 19.691 250.809 19.221ZM289.276 63.122V63.122C288.94 63.466 288.503 63.85 287.965 64.276 287.433 64.706 286.863 65.054 286.258 65.32 285.653 65.596 285.055 65.739 284.466 65.75 283.872 65.766 283.334 65.539 282.853 65.068V65.068C282.209 64.438 281.956 63.733 282.094 62.954 282.231 62.174 282.548 61.392 283.044 60.609 283.545 59.82 284.11 59.076 284.739 58.376 285.377 57.676 285.88 57.118 286.248 56.704V56.704C284.803 55.692 283.399 54.672 282.034 53.645V53.645C281.608 54.003 281.052 54.424 280.364 54.908 279.676 55.383 278.947 55.78 278.177 56.1 277.412 56.415 276.647 56.59 275.884 56.627 275.125 56.659 274.476 56.411 273.937 55.884V55.884C273.522 55.479 273.345 55.011 273.405 54.483 273.47 53.949 273.646 53.416 273.933 52.885 274.214 52.349 274.56 51.848 274.97 51.381 275.371 50.914 275.715 50.533 276.004 50.238V50.238C276.97 49.251 278.002 48.353 279.102 47.544 280.196 46.74 281.313 45.961 282.45 45.208V45.208C283.045 44.81 283.759 44.356 284.593 43.847 285.432 43.343 286.325 42.855 287.272 42.382 288.229 41.909 289.219 41.488 290.244 41.118 291.268 40.749 292.267 40.5 293.242 40.371 294.216 40.233 295.151 40.265 296.044 40.468 296.938 40.66 297.72 41.086 298.393 41.743V41.743C299.051 42.387 299.478 43.094 299.675 43.866 299.872 44.637 299.917 45.44 299.808 46.276 299.694 47.117 299.458 47.964 299.1 48.817 298.742 49.67 298.336 50.49 297.882 51.278 297.429 52.075 296.963 52.832 296.485 53.55 296.002 54.262 295.575 54.894 295.204 55.446V55.446C294.332 56.795 293.409 58.12 292.432 59.423 291.466 60.726 290.414 61.959 289.276 63.122ZM289.705 52.655L290.44 51.904C290.645 51.694 290.967 51.342 291.404 50.847 291.842 50.342 292.251 49.809 292.632 49.249 293.013 48.688 293.294 48.133 293.477 47.584 293.659 47.035 293.593 46.606 293.279 46.299V46.299C293.107 46.131 292.828 46.087 292.442 46.166 292.057 46.246 291.632 46.404 291.167 46.64 290.698 46.881 290.204 47.172 289.684 47.512 289.169 47.848 288.68 48.181 288.217 48.512 287.763 48.842 287.358 49.151 287.003 49.438 286.657 49.725 286.407 49.928 286.253 50.047V50.047C287.376 50.978 288.527 51.847 289.705 52.655ZM329.371 104.634V104.634C328.014 105.157 326.639 105.583 325.243 105.914 323.855 106.242 322.468 106.53 321.084 106.777V106.777C320.716 106.841 320.13 106.952 319.326 107.112 318.514 107.267 317.607 107.427 316.606 107.592 315.604 107.756 314.557 107.896 313.465 108.009 312.363 108.119 311.342 108.166 310.399 108.151 309.459 108.141 308.648 108.04 307.966 107.845 307.286 107.657 306.858 107.336 306.683 106.882V106.882C306.508 106.427 306.564 105.905 306.852 105.316 307.145 104.724 307.57 104.12 308.127 103.506 308.674 102.887 309.321 102.266 310.067 101.643 310.813 101.019 311.546 100.444 312.265 99.917 312.986 99.396 313.65 98.932 314.259 98.526 314.876 98.124 315.339 97.824 315.649 97.626V97.626C315.32 97.645 314.795 97.683 314.074 97.74 313.361 97.8 312.545 97.836 311.627 97.846 310.712 97.863 309.768 97.852 308.795 97.812 307.816 97.775 306.901 97.692 306.05 97.562 305.196 97.441 304.459 97.254 303.839 96.999 303.226 96.743 302.836 96.4 302.671 95.97V95.97C302.452 95.404 302.509 94.81 302.842 94.189 303.174 93.568 303.673 92.961 304.338 92.369 305.003 91.776 305.778 91.192 306.664 90.614 307.543 90.04 308.431 89.515 309.327 89.041 310.217 88.569 311.057 88.142 311.846 87.759 312.635 87.377 313.261 87.082 313.724 86.875V86.875C314.783 86.395 315.821 85.927 316.839 85.47 317.854 85.008 318.906 84.566 319.995 84.147V84.147C320.381 83.998 320.911 83.808 321.587 83.576 322.262 83.344 322.948 83.176 323.644 83.073 324.349 82.972 325.003 82.981 325.606 83.099 326.209 83.217 326.645 83.56 326.914 84.128V84.128C327.13 84.616 327.094 85.124 326.803 85.65 326.513 86.177 326.058 86.702 325.438 87.227 324.825 87.749 324.111 88.253 323.298 88.738 322.484 89.223 321.687 89.659 320.907 90.046 320.123 90.441 319.397 90.781 318.728 91.068 318.057 91.348 317.559 91.54 317.234 91.643V91.643L316.343 91.944C316.661 91.9 317.171 91.839 317.87 91.763 318.563 91.689 319.359 91.621 320.258 91.561 321.157 91.5 322.084 91.45 323.041 91.41 324.002 91.361 324.891 91.362 325.711 91.41 326.536 91.457 327.24 91.55 327.823 91.69 328.41 91.821 328.77 92.032 328.904 92.324V92.324C329.075 92.694 328.993 93.147 328.656 93.684 328.312 94.217 327.817 94.769 327.172 95.339 326.523 95.918 325.778 96.498 324.937 97.08 324.096 97.661 323.274 98.207 322.47 98.717 321.669 99.218 320.934 99.648 320.265 100.006 319.598 100.371 319.126 100.631 318.851 100.787V100.787C319.221 100.673 319.815 100.508 320.633 100.293 321.447 100.087 322.363 99.877 323.381 99.663 324.408 99.453 325.468 99.273 326.561 99.123 327.66 98.971 328.688 98.893 329.644 98.889 330.606 98.883 331.43 98.98 332.115 99.181 332.8 99.381 333.238 99.73 333.43 100.228V100.228C333.648 100.794 333.637 101.321 333.395 101.807 333.151 102.287 332.795 102.706 332.326 103.066 331.859 103.432 331.345 103.748 330.783 104.014 330.228 104.279 329.757 104.485 329.371 104.634ZM89.762 189.792V189.792C88.541 190.2 87.253 190.334 85.899 190.196 84.552 190.055 83.263 189.702 82.033 189.135 80.797 188.571 79.692 187.822 78.719 186.888 77.742 185.963 77.018 184.911 76.547 183.732V183.732C76.136 183.849 75.618 184.004 74.994 184.198 74.37 184.393 73.708 184.568 73.008 184.725 72.304 184.89 71.592 185.022 70.873 185.122 70.154 185.221 69.486 185.244 68.871 185.189 68.246 185.131 67.702 184.975 67.238 184.722 66.778 184.461 66.457 184.058 66.275 183.514V183.514C66.064 182.882 66.105 182.309 66.398 181.796 66.691 181.284 67.1 180.834 67.624 180.448 68.147 180.055 68.717 179.721 69.335 179.444 69.957 179.159 70.489 178.929 70.929 178.753V178.753C71.572 178.489 72.208 178.245 72.836 178.022 73.467 177.804 74.111 177.585 74.769 177.366V177.366C75.06 177.268 75.607 177.086 76.41 176.817 77.207 176.551 78.122 176.249 79.156 175.911 80.185 175.581 81.263 175.242 82.391 174.893 83.517 174.538 84.569 174.226 85.548 173.955 86.518 173.68 87.354 173.457 88.056 173.286 88.752 173.117 89.171 173.058 89.315 173.108V173.108C89.34 173.121 89.413 173.17 89.533 173.257 89.647 173.345 89.769 173.445 89.897 173.557 90.017 173.664 90.131 173.763 90.239 173.854 90.34 173.947 90.411 174.011 90.451 174.047V174.047C91.386 174.888 92.275 175.856 93.12 176.952 93.966 178.055 94.593 179.217 95.001 180.437V180.437C95.347 181.475 95.454 182.487 95.319 183.474 95.178 184.463 94.866 185.369 94.381 186.192 93.892 187.023 93.242 187.75 92.431 188.373 91.619 188.996 90.729 189.469 89.762 189.792ZM87.025 184.188V184.188C87.474 184.038 87.833 183.798 88.103 183.469 88.367 183.142 88.416 182.732 88.251 182.238V182.238C88.107 181.808 87.882 181.406 87.573 181.03 87.259 180.657 86.95 180.321 86.646 180.022V180.022C85.878 180.356 85.131 180.675 84.404 180.982 83.683 181.286 82.919 181.548 82.114 181.768V181.768C82.411 182.069 82.752 182.395 83.136 182.745 83.512 183.09 83.91 183.397 84.329 183.664 84.741 183.928 85.174 184.12 85.63 184.242 86.085 184.365 86.551 184.346 87.025 184.188ZM105.333 236.896V236.896C104.974 237.205 104.517 237.548 103.96 237.924 103.399 238.295 102.813 238.59 102.201 238.81 101.585 239.026 100.985 239.117 100.401 239.084 99.826 239.052 99.321 238.784 98.885 238.279V238.279C98.305 237.608 98.113 236.897 98.309 236.145 98.51 235.389 98.888 234.648 99.442 233.922 99.991 233.192 100.606 232.51 101.285 231.879 101.96 231.242 102.498 230.737 102.899 230.365V230.365C101.561 229.256 100.266 228.14 99.014 227.019V227.019C98.569 227.341 97.99 227.706 97.275 228.113 96.559 228.529 95.814 228.86 95.039 229.106 94.26 229.357 93.495 229.467 92.746 229.437 91.996 229.406 91.382 229.113 90.902 228.558V228.558C90.527 228.124 90.393 227.649 90.502 227.132 90.605 226.619 90.819 226.112 91.144 225.611 91.469 225.11 91.848 224.646 92.28 224.218 92.718 223.796 93.088 223.454 93.39 223.192V223.192C94.419 222.303 95.503 221.506 96.642 220.804 97.78 220.102 98.94 219.43 100.121 218.787V218.787C100.733 218.444 101.467 218.06 102.325 217.635 103.189 217.206 104.107 216.8 105.081 216.416 106.05 216.028 107.053 215.694 108.089 215.415 109.121 215.14 110.121 214.976 111.09 214.923 112.053 214.875 112.962 214.983 113.818 215.249 114.683 215.515 115.418 215.998 116.025 216.7V216.7C116.618 217.386 116.979 218.114 117.107 218.884 117.236 219.655 117.211 220.448 117.034 221.262 116.857 222.077 116.557 222.887 116.134 223.693 115.717 224.495 115.25 225.265 114.733 226.003 114.225 226.742 113.709 227.444 113.183 228.11 112.652 228.772 112.184 229.357 111.779 229.867V229.867C110.809 231.111 109.794 232.333 108.733 233.532 107.677 234.728 106.543 235.849 105.333 236.896ZM106.613 226.676L107.392 226.003C107.609 225.815 107.954 225.495 108.427 225.042 108.895 224.584 109.341 224.097 109.767 223.579 110.183 223.061 110.502 222.538 110.725 222.01 110.947 221.492 110.916 221.069 110.632 220.741V220.741C110.48 220.564 110.212 220.5 109.831 220.548 109.449 220.596 109.019 220.716 108.542 220.909 108.06 221.105 107.55 221.347 107.014 221.635 106.478 221.922 105.972 222.209 105.498 222.496 105.023 222.783 104.604 223.053 104.24 223.306 103.873 223.553 103.609 223.733 103.45 223.844V223.844C104.474 224.845 105.528 225.789 106.613 226.676ZM160.717 253.211V253.211C160.124 254.509 159.452 255.753 158.702 256.943 157.947 258.13 157.168 259.288 156.365 260.417V260.417C156.151 260.708 155.814 261.188 155.354 261.857 154.891 262.518 154.364 263.252 153.774 264.061 153.181 264.86 152.54 265.678 151.849 266.513 151.153 267.346 150.468 268.082 149.795 268.72 149.124 269.352 148.485 269.837 147.876 270.174 147.261 270.509 146.738 270.578 146.307 270.381V270.381C145.87 270.181 145.55 269.774 145.347 269.161 145.147 268.541 145.029 267.827 144.995 267.02 144.964 266.206 144.995 265.321 145.087 264.366 145.185 263.414 145.306 262.508 145.45 261.65 145.596 260.785 145.746 260 145.901 259.293 146.046 258.59 146.162 258.063 146.249 257.714V257.714C146.03 257.952 145.688 258.338 145.223 258.873 144.761 259.403 144.212 259.987 143.574 260.627 142.943 261.27 142.271 261.912 141.559 262.555 140.848 263.197 140.147 263.767 139.457 264.266 138.773 264.767 138.126 265.139 137.517 265.381 136.907 265.623 136.396 265.649 135.984 265.461V265.461C135.444 265.214 135.076 264.759 134.88 264.098 134.687 263.43 134.622 262.659 134.684 261.786 134.74 260.909 134.882 259.966 135.11 258.955 135.337 257.945 135.602 256.965 135.903 256.018 136.204 255.07 136.502 254.195 136.797 253.391 137.088 252.578 137.325 251.938 137.509 251.472V251.472C137.923 250.408 138.331 249.362 138.735 248.337 139.135 247.317 139.572 246.289 140.047 245.252V245.252C140.216 244.882 140.455 244.383 140.765 243.754 141.083 243.122 141.452 242.532 141.872 241.983 142.294 241.429 142.761 240.986 143.272 240.655 143.776 240.321 144.321 240.262 144.904 240.477V240.477C145.385 240.675 145.706 241.057 145.866 241.621 146.023 242.192 146.066 242.875 145.995 243.671 145.921 244.459 145.762 245.303 145.519 246.204 145.278 247.098 145.018 247.955 144.739 248.773 144.457 249.583 144.18 250.318 143.907 250.978 143.634 251.638 143.417 252.114 143.254 252.406V252.406L142.83 253.235C143.025 252.987 143.342 252.597 143.783 252.065 144.225 251.534 144.74 250.937 145.328 250.275 145.917 249.613 146.534 248.938 147.179 248.25 147.821 247.568 148.447 246.96 149.058 246.426 149.67 245.891 150.225 245.471 150.725 245.164 151.23 244.86 151.631 244.761 151.927 244.867V244.867C152.306 245.018 152.558 245.397 152.683 246.005 152.809 246.612 152.843 247.339 152.786 248.186 152.726 249.038 152.599 249.956 152.406 250.938 152.217 251.93 152.014 252.878 151.798 253.784 151.579 254.696 151.359 255.505 151.139 256.211 150.916 256.923 150.762 257.428 150.676 257.726V257.726C150.859 257.392 151.163 256.871 151.589 256.164 152.015 255.457 152.515 254.677 153.088 253.824 153.662 252.972 154.284 252.116 154.956 251.257 155.618 250.402 156.286 249.64 156.958 248.972 157.627 248.31 158.276 247.815 158.903 247.486 159.521 247.16 160.067 247.105 160.54 247.322V247.322C161.086 247.571 161.439 247.946 161.6 248.444 161.764 248.952 161.805 249.495 161.723 250.074 161.642 250.653 161.496 251.228 161.286 251.799 161.076 252.37 160.887 252.841 160.717 253.211ZM205.273 276.544V276.544C205.266 277.237 205.034 277.795 204.576 278.217 204.118 278.646 203.568 278.914 202.927 279.021V279.021C202.212 279.181 201.4 279.323 200.492 279.448 199.584 279.572 198.659 279.676 197.718 279.76 196.776 279.844 195.852 279.905 194.945 279.943 194.044 279.987 193.223 280.006 192.483 279.998V279.998C192.29 279.997 192.023 279.987 191.683 279.971 191.336 279.954 190.98 279.927 190.613 279.89 190.24 279.846 189.894 279.789 189.575 279.72 189.255 279.643 189.013 279.544 188.847 279.422V279.422C188.682 279.281 188.534 279.082 188.403 278.828 188.279 278.58 188.168 278.305 188.071 278.004 187.981 277.703 187.914 277.409 187.87 277.122 187.826 276.841 187.805 276.591 187.807 276.371V276.371C187.81 276.044 187.853 275.741 187.936 275.461 188.026 275.189 188.188 274.937 188.424 274.706V274.706C188.714 274.395 189.017 274.095 189.333 273.805 189.643 273.508 189.943 273.217 190.232 272.933V272.933C190.569 272.583 191.014 272.117 191.567 271.536 192.119 270.961 192.716 270.313 193.357 269.593 193.991 268.872 194.628 268.115 195.27 267.321 195.911 266.533 196.496 265.759 197.024 264.997 197.558 264.242 197.989 263.533 198.315 262.869 198.642 262.205 198.808 261.637 198.812 261.163V261.163C198.817 260.71 198.691 260.332 198.433 260.029 198.176 259.733 197.821 259.583 197.367 259.578V259.578C196.867 259.573 196.402 259.745 195.972 260.095 195.535 260.45 195.101 260.833 194.67 261.242 194.239 261.658 193.778 262.04 193.288 262.389 192.791 262.744 192.232 262.919 191.612 262.913V262.913C190.878 262.905 190.304 262.686 189.888 262.255 189.479 261.818 189.278 261.242 189.285 260.529V260.529C189.295 259.482 189.535 258.514 190.004 257.624 190.479 256.735 191.101 255.975 191.867 255.342 192.64 254.703 193.502 254.204 194.453 253.847 195.41 253.49 196.389 253.316 197.389 253.326V253.326C198.416 253.336 199.369 253.462 200.247 253.704 201.125 253.953 201.881 254.331 202.517 254.837 203.159 255.344 203.659 255.986 204.018 256.763 204.384 257.54 204.561 258.476 204.551 259.569V259.569C204.542 260.43 204.383 261.328 204.074 262.266 203.764 263.203 203.361 264.146 202.865 265.095 202.369 266.044 201.799 266.985 201.156 267.919 200.52 268.853 199.864 269.744 199.189 270.591 198.514 271.445 197.839 272.238 197.165 272.972 196.491 273.699 195.877 274.333 195.325 274.874V274.874C196.494 274.746 197.719 274.618 199 274.491 200.289 274.357 201.53 274.296 202.724 274.307V274.307C203.411 274.314 204.009 274.504 204.519 274.875 205.029 275.254 205.28 275.81 205.273 276.544ZM250.033 248.559V248.559C250.517 249.752 250.732 251.028 250.679 252.388 250.624 253.742 250.352 255.051 249.864 256.314 249.378 257.583 248.7 258.733 247.83 259.762 246.968 260.795 245.964 261.584 244.817 262.128V262.128C244.959 262.532 245.146 263.038 245.38 263.649 245.613 264.26 245.83 264.909 246.03 265.598 246.239 266.291 246.416 266.993 246.56 267.704 246.705 268.416 246.769 269.08 246.754 269.698 246.734 270.325 246.613 270.878 246.39 271.357 246.158 271.833 245.777 272.178 245.245 272.394V272.394C244.627 272.644 244.053 272.64 243.523 272.38 242.993 272.12 242.519 271.74 242.1 271.24 241.676 270.743 241.306 270.195 240.991 269.596 240.667 268.993 240.404 268.477 240.201 268.049V268.049C239.897 267.424 239.614 266.804 239.351 266.191 239.094 265.576 238.835 264.947 238.574 264.304V264.304C238.459 264.02 238.242 263.485 237.924 262.7 237.608 261.922 237.249 261.027 236.847 260.017 236.453 259.011 236.047 257.956 235.628 256.852 235.203 255.751 234.824 254.72 234.493 253.761 234.157 252.81 233.882 251.99 233.667 251.3 233.455 250.616 233.369 250.201 233.41 250.055V250.055C233.421 250.029 233.466 249.953 233.545 249.827 233.626 249.708 233.718 249.581 233.822 249.445 233.921 249.318 234.013 249.198 234.097 249.085 234.183 248.978 234.243 248.904 234.276 248.862V248.862C235.056 247.876 235.967 246.927 237.008 246.016 238.055 245.101 239.175 244.403 240.367 243.919V243.919C241.381 243.508 242.385 243.338 243.378 243.41 244.374 243.488 245.298 243.743 246.15 244.175 247.01 244.611 247.776 245.214 248.449 245.985 249.121 246.755 249.649 247.614 250.033 248.559ZM244.612 251.643V251.643C244.434 251.204 244.173 250.86 243.827 250.612 243.484 250.37 243.072 250.346 242.59 250.542V250.542C242.169 250.712 241.782 250.963 241.427 251.294 241.074 251.631 240.758 251.961 240.478 252.283V252.283C240.86 253.028 241.226 253.754 241.577 254.461 241.926 255.161 242.236 255.907 242.506 256.697V256.697C242.788 256.381 243.091 256.02 243.416 255.615 243.738 255.218 244.019 254.802 244.259 254.366 244.496 253.939 244.661 253.494 244.755 253.032 244.848 252.569 244.8 252.106 244.612 251.643ZM296.064 230.055V230.055C296.396 230.393 296.766 230.828 297.177 231.36 297.582 231.897 297.914 232.463 298.172 233.06 298.426 233.661 298.555 234.254 298.559 234.839 298.563 235.415 298.327 235.936 297.851 236.403V236.403C297.218 237.024 296.52 237.261 295.758 237.112 294.99 236.959 294.227 236.629 293.468 236.122 292.704 235.619 291.985 235.049 291.312 234.411 290.634 233.777 290.096 233.272 289.699 232.896V232.896C288.677 234.301 287.645 235.664 286.605 236.984V236.984C286.955 237.407 287.355 237.963 287.806 238.651 288.267 239.339 288.644 240.062 288.939 240.819 289.239 241.581 289.397 242.337 289.413 243.087 289.43 243.837 289.176 244.469 288.653 244.983V244.983C288.243 245.385 287.777 245.548 287.255 245.472 286.736 245.401 286.217 245.22 285.696 244.927 285.176 244.635 284.688 244.286 284.235 243.881 283.786 243.471 283.421 243.123 283.141 242.838V242.838C282.188 241.867 281.325 240.835 280.552 239.743 279.78 238.652 279.035 237.536 278.32 236.398V236.398C277.939 235.81 277.509 235.1 277.031 234.271 276.548 233.436 276.085 232.545 275.641 231.598 275.192 230.655 274.796 229.675 274.452 228.658 274.112 227.646 273.886 226.658 273.772 225.695 273.663 224.737 273.714 223.822 273.925 222.952 274.136 222.072 274.572 221.307 275.234 220.658V220.658C275.881 220.022 276.585 219.616 277.346 219.439 278.107 219.263 278.899 219.237 279.724 219.363 280.548 219.488 281.375 219.736 282.207 220.107 283.033 220.473 283.831 220.891 284.6 221.36 285.369 221.82 286.103 222.292 286.801 222.775 287.495 223.262 288.108 223.692 288.642 224.065V224.065C289.945 224.954 291.229 225.891 292.493 226.874 293.752 227.852 294.943 228.913 296.064 230.055ZM285.784 229.422L285.062 228.686C284.862 228.482 284.52 228.158 284.039 227.715 283.552 227.276 283.037 226.861 282.494 226.47 281.951 226.087 281.409 225.802 280.868 225.613 280.337 225.424 279.917 225.481 279.607 225.785V225.785C279.441 225.948 279.393 226.219 279.465 226.597 279.537 226.975 279.684 227.396 279.906 227.86 280.133 228.329 280.407 228.822 280.727 229.339 281.048 229.856 281.366 230.343 281.683 230.798 281.999 231.254 282.295 231.655 282.57 232.002 282.84 232.354 283.036 232.605 283.157 232.757V232.757C284.091 231.672 284.967 230.56 285.784 229.422ZM308.863 173.755V173.755C310.196 174.266 311.479 174.858 312.714 175.531 313.946 176.211 315.151 176.915 316.328 177.645V177.645C316.632 177.84 317.133 178.146 317.83 178.564 318.518 178.985 319.284 179.464 320.128 180.002 320.963 180.543 321.82 181.132 322.697 181.768 323.572 182.411 324.349 183.048 325.029 183.68 325.701 184.309 326.226 184.917 326.601 185.504 326.973 186.097 327.075 186.614 326.905 187.056V187.056C326.734 187.505 326.348 187.85 325.748 188.091 325.142 188.33 324.437 188.492 323.634 188.577 322.823 188.659 321.939 188.684 320.98 188.652 320.023 188.614 319.112 188.551 318.246 188.462 317.374 188.37 316.58 188.27 315.865 188.16 315.154 188.059 314.622 187.976 314.268 187.912V187.912C314.519 188.115 314.926 188.432 315.489 188.862 316.047 189.29 316.665 189.802 317.343 190.398 318.024 190.987 318.708 191.617 319.394 192.287 320.08 192.957 320.693 193.621 321.234 194.278 321.777 194.929 322.189 195.551 322.469 196.144 322.748 196.737 322.807 197.245 322.645 197.669V197.669C322.432 198.223 322.002 198.619 321.354 198.856 320.7 199.091 319.935 199.205 319.059 199.197 318.181 199.197 317.23 199.114 316.207 198.951 315.185 198.787 314.191 198.585 313.226 198.344 312.262 198.102 311.369 197.86 310.548 197.617 309.718 197.378 309.065 197.181 308.589 197.027V197.027C307.5 196.681 306.431 196.339 305.382 196.001 304.339 195.666 303.285 195.294 302.22 194.886V194.886C301.841 194.74 301.327 194.533 300.681 194.263 300.03 193.985 299.418 193.654 298.844 193.27 298.263 192.883 297.792 192.445 297.429 191.957 297.064 191.474 296.971 190.935 297.15 190.339V190.339C297.317 189.846 297.678 189.502 298.231 189.307 298.79 189.114 299.47 189.028 300.269 189.049 301.059 189.073 301.912 189.179 302.826 189.365 303.734 189.549 304.605 189.754 305.44 189.981 306.265 190.212 307.016 190.442 307.692 190.673 308.368 190.903 308.857 191.091 309.159 191.235V191.235L310.013 191.605C309.753 191.427 309.344 191.134 308.785 190.728 308.227 190.321 307.599 189.844 306.901 189.298 306.203 188.752 305.491 188.179 304.764 187.579 304.043 186.982 303.397 186.395 302.825 185.818 302.253 185.242 301.798 184.714 301.461 184.235 301.125 183.749 301.001 183.355 301.089 183.053V183.053C301.216 182.666 301.578 182.391 302.177 182.227 302.775 182.064 303.498 181.984 304.347 181.988 305.201 181.994 306.125 182.062 307.118 182.193 308.119 182.319 309.079 182.462 309.996 182.621 310.92 182.782 311.741 182.951 312.46 183.126 313.184 183.304 313.698 183.426 314.001 183.492V183.492C313.656 183.331 313.117 183.06 312.384 182.679 311.652 182.299 310.842 181.849 309.955 181.331 309.068 180.812 308.175 180.245 307.276 179.629 306.38 179.021 305.578 178.403 304.869 177.774 304.166 177.147 303.631 176.532 303.263 175.926 302.899 175.33 302.81 174.788 302.996 174.303V174.303C303.211 173.742 303.562 173.366 304.05 173.175 304.546 172.979 305.086 172.904 305.669 172.949 306.252 172.994 306.835 173.103 307.418 173.276 308.001 173.45 308.483 173.61 308.863 173.755ZM68.285 143.153C68.285 141.41 69.698 139.997 71.441 139.997 73.184 139.997 74.597 141.41 74.597 143.153 74.597 144.896 73.184 146.309 71.441 146.309 69.698 146.309 68.285 144.896 68.285 143.153ZM320.383 143.153C320.383 141.41 321.796 139.997 323.539 139.997 325.282 139.997 326.695 141.41 326.695 143.153 326.695 144.896 325.282 146.309 323.539 146.309 321.796 146.309 320.383 144.896 320.383 143.153Z" fill="#ffffff" data-fill-palette-color="primary"></path></svg></g></svg></g></svg></g><g></g></svg></g><defs></defs></svg><rect width="395.52" height="280" fill="none" stroke="none" visibility="hidden"></rect></g></svg></g></svg>